Coordinates
version=1
nRows=21
nColumns=12
inDegrees=yes

Units are S.I. units (second, meters, Newtons, ...)
Angles are in degrees

endheader
time	SC_y	SC_z	SC_x	AC_y	AC_z	AC_x	GH_y	GH_z	GH_yy	EL_x	PS_y
       0.0               -51.5          12.03          7.855          36.32         -18.18          7.129          153.5          40.77           45.7          103.3          116.7
   0.03357              -51.49          12.03          7.854          36.32         -18.18           7.13          153.5          40.76          45.71          103.3          116.7
   0.06715              -51.49          12.03          7.853          36.33         -18.18          7.132          153.5          40.76          45.72          103.3          116.7
    0.1007              -51.49          12.03          7.853          36.33         -18.17          7.134          153.5          40.75          45.73          103.3          116.7
    0.1343              -51.48          12.03          7.852          36.33         -18.17          7.135          153.5          40.74          45.75          103.3          116.7
    0.1679              -51.48          12.03          7.851          36.33         -18.17          7.137          153.5          40.74          45.76          103.3          116.7
    0.2014              -51.47          12.03          7.851          36.33         -18.17          7.139          153.6          40.73          45.78          103.3          116.6
     0.235              -51.47          12.02           7.85          36.33         -18.16          7.142          153.6          40.72          45.79          103.3          116.6
    0.2686              -51.47          12.02          7.849          36.33         -18.16          7.144          153.6          40.71          45.81          103.3          116.6
    0.3022              -51.46          12.02          7.848          36.33         -18.15          7.146          153.6           40.7          45.83          103.3          116.6
    0.3357              -51.45          12.02          7.847          36.33         -18.15          7.149          153.6          40.69          45.85          103.2          116.6
    0.3693              -51.45          12.02          7.846          36.33         -18.15          7.152          153.6          40.68          45.87          103.2          116.6
    0.4029              -51.44          12.01          7.844          36.33         -18.14          7.155          153.6          40.67          45.89          103.2          116.6
    0.4365              -51.44          12.01          7.843          36.33         -18.14          7.158          153.6          40.66          45.91          103.2          116.5
      0.47              -51.43          12.01          7.841          36.33         -18.13          7.162          153.6          40.65          45.94          103.2          116.5
    0.5036              -51.42          12.01           7.84          36.34         -18.12          7.166          153.6          40.63          45.97          103.2          116.5
    0.5372              -51.41           12.0          7.838          36.34         -18.12           7.17          153.6          40.62           46.0          103.2          116.5
    0.5708               -51.4           12.0          7.836          36.34         -18.11          7.175          153.6           40.6          46.03          103.2          116.4
    0.6043              -51.39           12.0          7.834          36.34          -18.1           7.18          153.6          40.58          46.07          103.2          116.4
    0.6379              -51.38          11.99          7.832          36.34         -18.09          7.186          153.6          40.56          46.11          103.2          116.4
    0.6715              -51.37          11.99           7.83          36.34         -18.08          7.192          153.6          40.54          46.15          103.1          116.3
